<?xml version="1.0" encoding="iso-8859-1"?>
<!-- Generator: Adobe Illustrator 16.0.0, SVG Export Plug-In . SVG Version: 6.00 Build 0)  -->
<!DOCTYPE svg PUBLIC "-//W3C//DTD SVG 1.1//EN" "http://www.w3.org/Graphics/SVG/1.1/DTD/svg11.dtd">
<svg version="1.1" id="Capa_1" xmlns="http://www.w3.org/2000/svg" xmlns:xlink="http://www.w3.org/1999/xlink" x="0px" y="0px"
	 width="14px" height="14px" viewBox="0 0 612 612" style="enable-background:new 0 0 612 612;" xml:space="preserve">
<g>
	<g id="Shape_380">
		<g>
			<path d="M306,0.342C136.996,0.342,0,137.185,0,305.975c0,168.83,136.996,305.684,306,305.684c168.993,0,306-136.854,306-305.684
				C612,137.185,474.993,0.342,306,0.342z M266.842,23.771c-27.673,28.764-51.062,61.628-69.36,97.502
				c-24.389-10.067-47.022-23.419-67.463-39.495C168.79,51.393,215.628,30.799,266.842,23.771z M114.107,95.304
				c22.46,18.136,47.501,33.129,74.552,44.391c-21.451,47.899-34.017,100.582-35.384,156.111H20.9
				C23.725,216.316,59.119,145.243,114.107,95.304z M20.9,316.175h132.365c1.387,56.273,14.26,109.649,36.241,158.049
				c-26.255,11.566-50.592,26.755-72.369,45.054C60.466,469.185,23.776,397.111,20.9,316.175z M133.232,532.598
				c19.747-16.156,41.636-29.61,65.219-39.923c18.146,35.089,41.167,67.27,68.33,95.523
				C216.975,581.344,171.36,561.617,133.232,532.598z M295.8,588.035c-31.528-29.57-58.058-64.352-78.295-102.929
				c24.714-8.73,50.979-13.964,78.295-15.32V588.035z M295.8,449.254c-30.549,1.438-59.904,7.334-87.424,17.289
				c-21.043-45.992-33.324-96.809-34.721-150.379H295.8V449.254z M295.8,295.795H173.655
				c1.377-52.999,13.444-103.285,34.079-148.899c27.785,9.445,57.324,14.983,88.057,15.973v132.926H295.8z M295.8,142.52
				c-27.581-0.979-54.101-5.855-79.121-14.147c20.329-39.188,47.175-74.491,79.121-104.458V142.52z M591.101,295.795H458.725
				c-1.388-55.478-14.106-108.12-35.802-155.897c27.224-11.281,52.397-26.408,74.99-44.656
				C552.901,145.202,588.274,216.316,591.101,295.795z M481.93,81.778c-20.584,16.188-43.37,29.642-67.942,39.75
				c-18.717-36.169-42.677-69.228-71.053-98.053C395.005,30.197,442.599,50.975,481.93,81.778z M316.2,25.893
				c31.65,29.478,58.272,64.158,78.529,102.663c-24.847,8.17-51.163,12.984-78.529,13.964V25.893L316.2,25.893z M316.2,162.879
				c30.59-1,59.976-6.477,87.628-15.831c20.899,45.492,33.109,95.788,34.507,148.757H316.2V162.879z M316.2,316.175h122.145
				c-1.387,52.703-13.505,102.744-34.211,148.083c-27.764-9.292-57.252-14.646-87.934-15.341V316.175z M316.2,586.076V469.45
				c27.469,0.643,53.896,5.283,78.856,13.361C374.758,521.562,348.004,556.436,316.2,586.076z M342.894,588.515
				c28.56-28.999,52.662-62.322,71.44-98.767c24.664,10.057,47.512,23.613,68.177,39.964
				C443.047,560.78,395.24,581.752,342.894,588.515z M498.474,516.258c-22.664-18.432-47.889-33.722-75.204-44.982
				c21.491-47.572,34.078-99.939,35.465-155.111h132.366C588.285,395.438,553.146,466.339,498.474,516.258z"/>
		</g>
	</g>
</g>
<g>
</g>
<g>
</g>
<g>
</g>
<g>
</g>
<g>
</g>
<g>
</g>
<g>
</g>
<g>
</g>
<g>
</g>
<g>
</g>
<g>
</g>
<g>
</g>
<g>
</g>
<g>
</g>
<g>
</g>
</svg>
